# xmcd CD database file
#
# Track frame offsets:
#	150
#	10136
#	26728
#	38385
#	47491
#	67933
#	84961
#	102658
#	115133
#	124870
#	136946
#	149295
#	161040
#	175039
#	189493
#	198624
#	209431
#	220734
#	228976
#	241639
#	256265
#
# Disc length: 3563 seconds
#
# Revision: 1
# Processed by: cddbd v1.5.2PL0 Copyright (c) Steve Scherf et al.
# Submitted via: CDex 1.70beta2
#
DISCID=190de915
DTITLE=Casa musica - Ballroom Stars 2 CD1
DYEAR=2008
DGENRE=Ballroom
TTITLE0=Mandulinata (LW 28)
TTITLE1=Anymore (LW 28)
TTITLE2=Dolore (LW 29)
TTITLE3=Clancy's Theme (LW 29)
TTITLE4=The Force (LW 28)
TTITLE5=Androgyne (LW 28)
TTITLE6=Passione (LW 28)
TTITLE7=Hushabye Mountain (LW 29)
TTITLE8=Andante Cantabile (LW 28)
TTITLE9=Garden of Graves (LW 28)
TTITLE10=Surrender (LW 28)
TTITLE11=La Cumparsita (TA 32)
TTITLE12=Felicia (TA 32)
TTITLE13=Tango Notturno (TA 32)
TTITLE14=Assassin's Tango (TA 31)
TTITLE15=Hernando's Hideaway (TA 32)
TTITLE16=Astor (TA 32)
TTITLE17=Ballerina (WW 59)
TTITLE18=Maigret (WW 58)
TTITLE19=Bradessus - Bradessous (WW 58)
TTITLE20=The Minute Waltz (WW 59)
EXTD=YEAR: 2008
EXTT0=
EXTT1=
EXTT2=
EXTT3=
EXTT4=
EXTT5=
EXTT6=
EXTT7=
EXTT8=
EXTT9=
EXTT10=
EXTT11=
EXTT12=
EXTT13=
EXTT14=
EXTT15=
EXTT16=
EXTT17=
EXTT18=
EXTT19=
EXTT20=
PLAYORDER=
